<svg viewBox="0 0 200 170" xmlns="http://www.w3.org/2000/svg">
  <defs>
    <linearGradient id="rgGrad" x1="0%" y1="0%" x2="100%" y2="100%">
      <stop offset="0%" stop-color="#23E8D6"/>
      <stop offset="55%" stop-color="#A16BFF"/>
      <stop offset="100%" stop-color="#E9C77B"/>
    </linearGradient>
  </defs>

  <g fill="none" stroke="url(#rgGrad)" stroke-width="2.4" stroke-linecap="round" stroke-linejoin="round">

    <!-- Gonjong tengah (tertinggi) -->
    <path d="M100 8 C 92 34, 84 46, 74 66 L 88 66 C 92 52, 96 42, 100 30 C 104 42, 108 52, 112 66 L 126 66 C 116 46, 108 34, 100 8 Z"/>

    <!-- Gonjong kiri -->
    <path d="M52 26 C 46 46, 40 56, 32 72 L 44 72 C 47 60, 50 52, 54 42 C 57 52, 60 60, 63 72 L 75 72 C 67 56, 61 46, 52 26 Z"/>

    <!-- Gonjong kanan -->
    <path d="M148 26 C 142 46, 136 56, 128 72 L 140 72 C 143 60, 146 52, 150 42 C 153 52, 156 60, 159 72 L 171 72 C 163 56, 157 46, 148 26 Z"/>

    <!-- Atap utama melengkung -->
    <path d="M20 78 C 45 60, 78 68, 100 68 C 122 68, 155 60, 180 78 L 180 92 C 155 78, 122 84, 100 84 C 78 84, 45 78, 20 92 Z"/>

    <!-- Badan rumah -->
    <rect x="38" y="92" width="124" height="52" rx="2"/>

    <!-- Tiang penyangga -->
    <line x1="50" y1="144" x2="50" y2="160"/>
    <line x1="76" y1="144" x2="76" y2="160"/>
    <line x1="100" y1="144" x2="100" y2="160"/>
    <line x1="124" y1="144" x2="124" y2="160"/>
    <line x1="150" y1="144" x2="150" y2="160"/>

    <!-- Pintu tengah -->
    <path d="M92 144 L92 118 C 92 112, 108 112, 108 118 L108 144"/>

    <!-- Ukiran jendela kiri & kanan -->
    <rect x="54" y="104" width="18" height="18" rx="2"/>
    <rect x="128" y="104" width="18" height="18" rx="2"/>

    <!-- Garis dekoratif horizontal -->
    <line x1="38" y1="130" x2="162" y2="130"/>
  </g>
</svg>
